<svg xmlns="http://www.w3.org/2000/svg" xmlns:xlink="http://www.w3.org/1999/xlink" xmlns:serif="http://www.serif.com/" viewBox="0 0 32 40" version="1.1" xml:space="preserve" style="" x="0px" y="0px" fill-rule="evenodd" clip-rule="evenodd" stroke-linejoin="round" stroke-miterlimit="2"><g transform="matrix(1,0,0,1,-96,-96)"><path d="M113,124L113,120L123,120C123.796,120 124.559,119.684 125.121,119.121C125.684,118.559 126,117.796 126,117L126,101C126,100.204 125.684,99.441 125.121,98.879C124.559,98.316 123.796,98 123,98L101,98C100.204,98 99.441,98.316 98.879,98.879C98.316,99.441 98,100.204 98,101C98,104.832 98,113.168 98,117C98,117.796 98.316,118.559 98.879,119.121C99.441,119.684 100.204,120 101,120L111,120L111,124L106,124C105.448,124 105,124.448 105,125C105,125.552 105.448,126 106,126L118,126C118.552,126 119,125.552 119,125C119,124.448 118.552,124 118,124L113,124ZM124,101L124,117C124,117.265 123.895,117.52 123.707,117.707C123.52,117.895 123.265,118 123,118C123,118 101,118 101,118C100.735,118 100.48,117.895 100.293,117.707C100.105,117.52 100,117.265 100,117L100,101C100,100.735 100.105,100.48 100.293,100.293C100.48,100.105 100.735,100 101,100C101,100 123,100 123,100C123.265,100 123.52,100.105 123.707,100.293C123.895,100.48 124,100.735 124,101Z"/><path d="M113,124L113,120L123,120C123.796,120 124.559,119.684 125.121,119.121C125.684,118.559 126,117.796 126,117L126,101C126,100.204 125.684,99.441 125.121,98.879C124.559,98.316 123.796,98 123,98L101,98C100.204,98 99.441,98.316 98.879,98.879C98.316,99.441 98,100.204 98,101C98,104.832 98,113.168 98,117C98,117.796 98.316,118.559 98.879,119.121C99.441,119.684 100.204,120 101,120L111,120L111,124L106,124C105.448,124 105,124.448 105,125C105,125.552 105.448,126 106,126L118,126C118.552,126 119,125.552 119,125C119,124.448 118.552,124 118,124L113,124ZM124,101L124,117C124,117.265 123.895,117.52 123.707,117.707C123.52,117.895 123.265,118 123,118C123,118 101,118 101,118C100.735,118 100.48,117.895 100.293,117.707C100.105,117.52 100,117.265 100,117L100,101C100,100.735 100.105,100.48 100.293,100.293C100.48,100.105 100.735,100 101,100C101,100 123,100 123,100C123.265,100 123.52,100.105 123.707,100.293C123.895,100.48 124,100.735 124,101Z"/></g><text x="0" y="47" fill="#000000" font-size="5px" font-weight="bold" font-family="'Helvetica Neue', Helvetica, Arial-Unicode, Arial, Sans-serif">Created by Mila Karmila</text><text x="0" y="52" fill="#000000" font-size="5px" font-weight="bold" font-family="'Helvetica Neue', Helvetica, Arial-Unicode, Arial, Sans-serif">from the Noun Project</text></svg>