<svg xmlns:dc="http://purl.org/dc/elements/1.1/" xmlns:cc="http://creativecommons.org/ns#" xmlns:rdf="http://www.w3.org/1999/02/22-rdf-syntax-ns#" xmlns:svg="http://www.w3.org/2000/svg" xmlns="http://www.w3.org/2000/svg" xmlns:sodipodi="http://sodipodi.sourceforge.net/DTD/sodipodi-0.dtd" xmlns:inkscape="http://www.inkscape.org/namespaces/inkscape" version="1.1" x="0px" y="0px" viewBox="0 0 100 125"><g transform="translate(0,-952.36218)"><path style="text-indent:0;text-transform:none;direction:ltr;block-progression:tb;baseline-shift:baseline;color:#000000;enable-background:accumulate;" d="M 31.6875,969.36625 A 3.0003,3.0001149 0 0 0 29,972.36607 l 0,6.99956 -9,0 a 3.0003,3.0001149 0 0 0 -0.3125,0 A 3.0003,3.0001149 0 0 0 17,982.36545 l 0,6.99957 -9,0 a 3.0003,3.0001149 0 0 0 -0.3125,0 A 3.0003,3.0001149 0 0 0 5,992.36483 l 0,39.99757 a 3.0003,3.0001149 0 0 0 3,2.9998 l 60,0 a 3.0003,3.0001149 0 0 0 3,-2.9998 l 0,-6.9996 9,0 a 3.0003,3.0001149 0 0 0 3,-2.9998 l 0,-6.9996 9,0 a 3.0003,3.0001149 0 0 0 3,-2.9998 l 0,-39.99753 a 3.0003,3.0001149 0 0 0 -3,-2.99982 l -60,0 a 3.0003,3.0001149 0 0 0 -0.3125,0 z m 3.3125,5.99963 54,0 0,33.99792 -6,0 0,-26.99835 a 3.0003,3.0001149 0 0 0 -3,-2.99982 l -45,0 0,-3.99975 z m -12,9.99938 8.5,0 a 3.0003,3.0001149 0 0 0 0.5,0.0312 l 45,-0.0312 0,26.99834 a 3.0003,3.0001149 0 0 0 0,0.3125 l 0,6.6871 -6,0 0,-26.99837 a 3.0003,3.0001149 0 0 0 -3,-2.99981 l -45,0 0,-3.99976 z m -12,9.99939 8.5,0 a 3.0003,3.0001149 0 0 0 0.5,0.0312 l 45,-0.0312 0,26.99835 a 3.0003,3.0001149 0 0 0 0,0.3125 l 0,6.6871 -54,0 0,-33.99795 z" fill="#000000" fill-opacity="1" stroke="none" marker="none" visibility="visible" display="inline" overflow="visible"/></g><text x="0" y="115" fill="#000000" font-size="5px" font-weight="bold" font-family="'Helvetica Neue', Helvetica, Arial-Unicode, Arial, Sans-serif">Created by johartcamp</text><text x="0" y="120" fill="#000000" font-size="5px" font-weight="bold" font-family="'Helvetica Neue', Helvetica, Arial-Unicode, Arial, Sans-serif">from the Noun Project</text></svg>