<svg xmlns="http://www.w3.org/2000/svg" xmlns:xlink="http://www.w3.org/1999/xlink" xmlns:serif="http://www.serif.com/" viewBox="0 0 32 40" version="1.1" xml:space="preserve" style="" x="0px" y="0px" fill-rule="evenodd" clip-rule="evenodd" stroke-linejoin="round" stroke-miterlimit="2"><g transform="matrix(1,0,0,1,-48,-144)"><path d="M64,145C55.721,145 49,151.721 49,160C49,168.279 55.721,175 64,175C72.279,175 79,168.279 79,160C79,151.721 72.279,145 64,145ZM64,147C71.175,147 77,152.825 77,160C77,167.175 71.175,173 64,173C56.825,173 51,167.175 51,160C51,152.825 56.825,147 64,147ZM60.941,157.504C60.107,158.06 59.606,158.997 59.606,160C59.606,161.003 60.107,161.94 60.941,162.496C62.799,163.734 65.346,165.433 67.336,166.759C68.256,167.373 69.44,167.43 70.416,166.908C71.391,166.386 72,165.369 72,164.263C72,161.697 72,158.303 72,155.737C72,154.631 71.391,153.614 70.416,153.092C69.44,152.57 68.256,152.627 67.336,153.241L60.941,157.504ZM56,154L56,166C56,166.552 56.448,167 57,167C57.552,167 58,166.552 58,166L58,154C58,153.448 57.552,153 57,153C56.448,153 56,153.448 56,154ZM62.051,159.168L68.445,154.905C68.752,154.7 69.147,154.681 69.472,154.855C69.797,155.029 70,155.368 70,155.737C70,155.737 70,164.263 70,164.263C70,164.632 69.797,164.971 69.472,165.145C69.147,165.319 68.752,165.3 68.445,165.095L62.051,160.832C61.773,160.647 61.606,160.334 61.606,160C61.606,159.666 61.773,159.353 62.051,159.168Z"/></g><text x="0" y="47" fill="#000000" font-size="5px" font-weight="bold" font-family="'Helvetica Neue', Helvetica, Arial-Unicode, Arial, Sans-serif">Created by Mila Karmila</text><text x="0" y="52" fill="#000000" font-size="5px" font-weight="bold" font-family="'Helvetica Neue', Helvetica, Arial-Unicode, Arial, Sans-serif">from the Noun Project</text></svg>