<svg xmlns="http://www.w3.org/2000/svg" xmlns:xlink="http://www.w3.org/1999/xlink" xmlns:serif="http://www.serif.com/" viewBox="0 0 32 40" version="1.1" xml:space="preserve" style="" x="0px" y="0px" fill-rule="evenodd" clip-rule="evenodd" stroke-linejoin="round" stroke-miterlimit="2"><g transform="matrix(1,0,0,1,-96,-288)"><path d="M118.293,295.293C117.893,295.102 117.452,295 117,295C113.168,295 104.832,295 101,295C100.204,295 99.441,295.316 98.879,295.879C98.316,296.441 98,297.204 98,298L98,310C98,310.796 98.316,311.559 98.879,312.121C99.349,312.592 99.959,312.889 100.611,312.975L98.251,315.335C97.861,315.725 97.861,316.358 98.251,316.749C98.642,317.139 99.275,317.139 99.665,316.749L103.414,313L117,313C117.796,313 118.559,312.684 119.121,312.121C119.684,311.559 120,310.796 120,310L120,308.618L123.106,310.171C123.726,310.481 124.462,310.448 125.051,310.083C125.641,309.719 126,309.075 126,308.382L126,299.618C126,298.925 125.641,298.281 125.051,297.917C124.462,297.552 123.726,297.519 123.106,297.829L120,299.382L120,298C120,297.548 119.898,297.107 119.707,296.707L122.707,293.707C123.097,293.317 123.097,292.683 122.707,292.293C122.317,291.903 121.683,291.903 121.293,292.293L118.293,295.293ZM118,298.414L118,310C118,310.265 117.895,310.52 117.707,310.707C117.52,310.895 117.265,311 117,311L105.414,311L118,298.414ZM116.586,297L102.586,311L101,311C100.735,311 100.48,310.895 100.293,310.707C100.105,310.52 100,310.265 100,310C100,310 100,298 100,298C100,297.735 100.105,297.48 100.293,297.293C100.48,297.105 100.735,297 101,297L116.586,297ZM124,299.618L124,308.382C124,308.382 120,306.382 120,306.382L120,301.618L124,299.618Z"/></g><text x="0" y="47" fill="#000000" font-size="5px" font-weight="bold" font-family="'Helvetica Neue', Helvetica, Arial-Unicode, Arial, Sans-serif">Created by Mila Karmila</text><text x="0" y="52" fill="#000000" font-size="5px" font-weight="bold" font-family="'Helvetica Neue', Helvetica, Arial-Unicode, Arial, Sans-serif">from the Noun Project</text></svg>