<svg xmlns="http://www.w3.org/2000/svg" viewBox="0 0 32 40" x="0px" y="0px"><g><path d="M26.91,8a3.41,3.41,0,0,0-1.5.34V7.5a3.5,3.5,0,0,0-5-3.16,3.5,3.5,0,0,0-7,0A3.41,3.41,0,0,0,11.91,4a3.5,3.5,0,0,0-3.5,3.5V18.32L6.49,17.27A3.31,3.31,0,0,0,3.91,17,3.31,3.31,0,0,0,3.11,23l10,6.45A10,10,0,0,0,18.55,31h1.86a10,10,0,0,0,10-10V11.5A3.5,3.5,0,0,0,26.91,8Zm1.5,13a8,8,0,0,1-8,8H18.55a8,8,0,0,1-4.32-1.27l-10-6.45a1.31,1.31,0,0,1-.47-1.69,1.28,1.28,0,0,1,.78-.66,1.09,1.09,0,0,1,.4-.07,1.26,1.26,0,0,1,.62.17l3.4,1.85a1,1,0,0,0,1,0,1,1,0,0,0,.49-.86V7.5a1.5,1.5,0,0,1,3,0V16a1,1,0,0,0,2,0V4.5a1.5,1.5,0,0,1,3,0V16a1,1,0,0,0,2,0V7.5a1.5,1.5,0,0,1,3,0V16a1,1,0,0,0,2,0V11.5a1.5,1.5,0,1,1,3,0Z"/></g><text x="0" y="47" fill="#000000" font-size="5px" font-weight="bold" font-family="'Helvetica Neue', Helvetica, Arial-Unicode, Arial, Sans-serif">Created by Ricons</text><text x="0" y="52" fill="#000000" font-size="5px" font-weight="bold" font-family="'Helvetica Neue', Helvetica, Arial-Unicode, Arial, Sans-serif">from the Noun Project</text></svg>