<svg xmlns="http://www.w3.org/2000/svg" xmlns:xlink="http://www.w3.org/1999/xlink" xmlns:serif="http://www.serif.com/" viewBox="0 0 32 40" version="1.1" xml:space="preserve" style="" x="0px" y="0px" fill-rule="evenodd" clip-rule="evenodd" stroke-linejoin="round" stroke-miterlimit="2"><g transform="matrix(1,0,0,1,-144,-48)"><path d="M174,59C174,58.204 173.684,57.441 173.121,56.879C172.559,56.316 171.796,56 171,56L167.442,56C167.011,56 166.629,55.725 166.493,55.316C166.463,55.228 166.434,55.139 166.405,55.051C165.996,53.826 164.85,53 163.558,53L156.442,53C155.15,53 154.004,53.826 153.595,55.051C153.566,55.139 153.537,55.228 153.507,55.316C153.371,55.725 152.989,56 152.558,56L149,56C148.204,56 147.441,56.316 146.879,56.879C146.316,57.441 146,58.204 146,59C146,62.271 146,68.729 146,72C146,73.657 147.343,75 149,75L171,75C172.657,75 174,73.657 174,72L174,59ZM172,59L172,72C172,72.552 171.552,73 171,73C171,73 149,73 149,73C148.448,73 148,72.552 148,72C148,68.729 148,62.271 148,59C148,58.735 148.105,58.48 148.293,58.293C148.48,58.105 148.735,58 149,58C149,58 152.558,58 152.558,58C153.85,58 154.996,57.174 155.405,55.949C155.434,55.861 155.463,55.772 155.493,55.684C155.629,55.275 156.011,55 156.441,55C156.442,55 163.558,55 163.558,55C163.989,55 164.371,55.275 164.507,55.684C164.537,55.772 164.566,55.861 164.595,55.949C165.004,57.174 166.15,58 167.442,58C167.442,58 171,58 171,58C171.265,58 171.52,58.105 171.707,58.293C171.895,58.48 172,58.735 172,59ZM160,60C157.24,60 155,62.24 155,65C155,67.76 157.24,70 160,70C162.76,70 165,67.76 165,65C165,62.24 162.76,60 160,60ZM160,62C161.656,62 163,63.344 163,65C163,66.656 161.656,68 160,68C158.344,68 157,66.656 157,65C157,63.344 158.344,62 160,62Z"/></g><text x="0" y="47" fill="#000000" font-size="5px" font-weight="bold" font-family="'Helvetica Neue', Helvetica, Arial-Unicode, Arial, Sans-serif">Created by Mila Karmila</text><text x="0" y="52" fill="#000000" font-size="5px" font-weight="bold" font-family="'Helvetica Neue', Helvetica, Arial-Unicode, Arial, Sans-serif">from the Noun Project</text></svg>