<svg xmlns="http://www.w3.org/2000/svg" xmlns:xlink="http://www.w3.org/1999/xlink" xmlns:serif="http://www.serif.com/" viewBox="0 0 32 40" version="1.1" xml:space="preserve" style="" x="0px" y="0px" fill-rule="evenodd" clip-rule="evenodd" stroke-linejoin="round" stroke-miterlimit="2"><g transform="matrix(1,0,0,1,-288,-144)"><path d="M318,151C318,149.674 317.473,148.402 316.536,147.464C315.598,146.527 314.326,146 313,146C308.111,146 299.889,146 295,146C293.674,146 292.402,146.527 291.464,147.464C290.527,148.402 290,149.674 290,151C290,153.977 290,158.023 290,161C290,162.326 290.527,163.598 291.464,164.536C292.402,165.473 293.674,166 295,166C295,166 296.005,166 296.005,166C295.866,168.139 294.756,170.268 293.192,172.411C292.938,172.759 292.936,173.23 293.186,173.581C293.437,173.932 293.883,174.083 294.295,173.955C298.924,172.525 303.245,169.812 305.576,166C305.576,166 313,166 313,166C314.326,166 315.598,165.473 316.536,164.536C317.473,163.598 318,162.326 318,161L318,151ZM316,151L316,161C316,161.796 315.684,162.559 315.121,163.121C314.559,163.684 313.796,164 313,164L305,164C304.635,164 304.299,164.199 304.124,164.518C302.546,167.389 299.696,169.565 296.45,171.015C297.546,168.985 298.141,166.952 297.997,164.929C297.96,164.406 297.525,164 297,164L295,164C294.204,164 293.441,163.684 292.879,163.121C292.316,162.559 292,161.796 292,161C292,158.023 292,153.977 292,151C292,150.204 292.316,149.441 292.879,148.879C293.441,148.316 294.204,148 295,148C299.889,148 308.111,148 313,148C313.796,148 314.559,148.316 315.121,148.879C315.684,149.441 316,150.204 316,151ZM297,154C295.896,154 295,154.896 295,156C295,157.104 295.896,158 297,158C298.104,158 299,157.104 299,156C299,154.896 298.104,154 297,154ZM304,154C302.896,154 302,154.896 302,156C302,157.104 302.896,158 304,158C305.104,158 306,157.104 306,156C306,154.896 305.104,154 304,154ZM311,154C309.896,154 309,154.896 309,156C309,157.104 309.896,158 311,158C312.104,158 313,157.104 313,156C313,154.896 312.104,154 311,154Z"/></g><text x="0" y="47" fill="#000000" font-size="5px" font-weight="bold" font-family="'Helvetica Neue', Helvetica, Arial-Unicode, Arial, Sans-serif">Created by Mila Karmila</text><text x="0" y="52" fill="#000000" font-size="5px" font-weight="bold" font-family="'Helvetica Neue', Helvetica, Arial-Unicode, Arial, Sans-serif">from the Noun Project</text></svg>