<svg xmlns="http://www.w3.org/2000/svg" xmlns:xlink="http://www.w3.org/1999/xlink" xmlns:serif="http://www.serif.com/" viewBox="0 0 32 40" version="1.1" xml:space="preserve" style="" x="0px" y="0px" fill-rule="evenodd" clip-rule="evenodd" stroke-linejoin="round" stroke-miterlimit="2"><g transform="matrix(1,0,0,1,0,-384)"><path d="M16,386C8.273,386 2,392.273 2,400C2,407.727 8.273,414 16,414C23.727,414 30,407.727 30,400C30,392.273 23.727,386 16,386ZM16,388C22.623,388 28,393.377 28,400C28,406.623 22.623,412 16,412C9.377,412 4,406.623 4,400C4,393.377 9.377,388 16,388ZM19,403.586L17.707,402.293C17.317,401.903 16.683,401.903 16.293,402.293C15.903,402.683 15.903,403.317 16.293,403.707L19.293,406.707C19.413,406.827 19.556,406.91 19.708,406.957L19.711,406.958C19.795,406.983 19.884,406.998 19.976,407L20,407L20.024,407C20.116,406.998 20.205,406.983 20.289,406.958L20.292,406.957C20.444,406.91 20.587,406.827 20.707,406.707L23.707,403.707C24.097,403.317 24.097,402.683 23.707,402.293C23.317,401.903 22.683,401.903 22.293,402.293L21,403.586L21,394C21,393.448 20.552,393 20,393C19.448,393 19,393.448 19,394L19,403.586ZM12,393L11.976,393C11.884,393.002 11.795,393.017 11.711,393.042L11.708,393.043C11.556,393.09 11.413,393.173 11.293,393.293L8.293,396.293C7.903,396.683 7.903,397.317 8.293,397.707C8.683,398.097 9.317,398.097 9.707,397.707L11,396.414L11,406C11,406.552 11.448,407 12,407C12.552,407 13,406.552 13,406L13,396.414L14.293,397.707C14.683,398.097 15.317,398.097 15.707,397.707C16.097,397.317 16.097,396.683 15.707,396.293L12.707,393.293C12.587,393.173 12.444,393.09 12.292,393.043L12.289,393.042C12.205,393.017 12.116,393.002 12.024,393L12,393Z"/></g><text x="0" y="47" fill="#000000" font-size="5px" font-weight="bold" font-family="'Helvetica Neue', Helvetica, Arial-Unicode, Arial, Sans-serif">Created by Mila Karmila</text><text x="0" y="52" fill="#000000" font-size="5px" font-weight="bold" font-family="'Helvetica Neue', Helvetica, Arial-Unicode, Arial, Sans-serif">from the Noun Project</text></svg>