<svg xmlns="http://www.w3.org/2000/svg" xmlns:xlink="http://www.w3.org/1999/xlink" xmlns:serif="http://www.serif.com/" viewBox="0 0 32 40" version="1.1" xml:space="preserve" style="" x="0px" y="0px" fill-rule="evenodd" clip-rule="evenodd" stroke-linejoin="round" stroke-miterlimit="2"><g transform="matrix(1,0,0,1,-144,-288)"><path d="M159.001,312.959C159,312.973 159,312.986 159,313L159,317C159,317.552 159.448,318 160,318C160.552,318 161,317.552 161,317L161,313C161,312.986 161,312.973 160.999,312.959C166.093,312.543 170,308.979 170,304.778C170,304.226 169.552,303.778 169,303.778C168.448,303.778 168,304.226 168,304.778C168,308.279 164.363,311 160,311C155.637,311 152,308.279 152,304.778C152,304.226 151.552,303.778 151,303.778C150.448,303.778 150,304.226 150,304.778C150,308.979 153.907,312.543 159.001,312.959ZM166,295C166,291.689 163.311,289 160,289C156.701,289 154.021,291.668 154,294.961L154,303C154,306.311 156.689,309 160,309C163.311,309 166,306.311 166,303L166,295ZM164,295L164,303C164,305.208 162.208,307 160,307C157.792,307 156,305.208 156,303C156,303 156,294.972 156,294.972C156.015,292.777 157.802,291 160,291C162.208,291 164,292.792 164,295Z"/></g><text x="0" y="47" fill="#000000" font-size="5px" font-weight="bold" font-family="'Helvetica Neue', Helvetica, Arial-Unicode, Arial, Sans-serif">Created by Mila Karmila</text><text x="0" y="52" fill="#000000" font-size="5px" font-weight="bold" font-family="'Helvetica Neue', Helvetica, Arial-Unicode, Arial, Sans-serif">from the Noun Project</text></svg>